<?xml version="1.0" encoding="UTF-8"?>
<svg version="1.1" xmlns="http://www.w3.org/2000/svg" width="128" height="128">
<path d="M0 0 C0.85464844 0.00644531 1.70929687 0.01289062 2.58984375 0.01953125 C5.0625 0.1875 5.0625 0.1875 7.25390625 0.76171875 C9.1482811 1.41139148 9.1482811 1.41139148 11.0625 0.1875 C16.20457416 -0.44957113 19.86090452 -0.73872985 24.0625 2.5 C28.59995794 8.59720911 28.81132057 12.69058704 28.0625 20.1875 C26.99324857 24.30179354 25.63089336 28.23850958 24.0625 32.1875 C26.015625 32.12239583 27.96875 32.05729167 29.921875 31.9921875 C32.36974458 32.21553326 33.90795329 33.04708974 36.0625 34.1875 C36.06137207 34.77241211 36.06024414 35.35732422 36.05908203 35.95996094 C36.07121767 38.62030346 36.12888386 41.27779245 36.1875 43.9375 C36.18492188 44.85789063 36.18234375 45.77828125 36.1796875 46.7265625 C36.25551651 49.34266321 36.39916152 51.65432017 37.0625 54.1875 C39.75338418 56.99998001 39.75338418 56.99998001 43.0625 58.1875 C45.82559357 57.63275427 45.82559357 57.63275427 48.0625 56.1875 C48.7225 55.8575 49.3825 55.5275 50.0625 55.1875 C50.13597656 53.43373047 50.13597656 53.43373047 50.2109375 51.64453125 C50.28600171 50.09633196 50.36154795 48.54815599 50.4375 47 C50.4684375 46.23107422 50.499375 45.46214844 50.53125 44.66992188 C50.74489434 40.52166099 50.95649705 36.8765868 53.0625 33.1875 C55.81328884 32.27057039 57.42198913 32.07863917 60.25 32.125 C62.1371875 32.1559375 62.1371875 32.1559375 64.0625 32.1875 C63.77375 31.46046875 63.485 30.7334375 63.1875 29.984375 C60.41484465 22.47510008 57.75048711 14.00700562 60.86328125 6.171875 C62.57443773 3.44988091 64.38513892 1.97240738 67.0625 0.1875 C69.40234375 -0.04296875 69.40234375 -0.04296875 72 0 C72.85464844 0.00644531 73.70929688 0.01289062 74.58984375 0.01953125 C77.0625 0.1875 77.0625 0.1875 79.25390625 0.76171875 C81.1482811 1.41139148 81.1482811 1.41139148 83.0625 0.1875 C88.20457416 -0.44957113 91.86090452 -0.73872985 96.0625 2.5 C100.59995794 8.59720911 100.81132057 12.69058704 100.0625 20.1875 C98.99324857 24.30179354 97.63089336 28.23850958 96.0625 32.1875 C97.2690625 32.1565625 97.2690625 32.1565625 98.5 32.125 C101.0625 32.1875 101.0625 32.1875 102.0625 33.1875 C102.35420277 37.95960963 102.37657599 42.73447613 102.41259766 47.51464844 C102.42912713 49.12286887 102.45637789 50.73101674 102.49462891 52.33886719 C102.54954207 54.65859041 102.57129421 56.97658836 102.5859375 59.296875 C102.60860687 60.01164001 102.63127625 60.72640503 102.65463257 61.46282959 C102.63972951 65.00343761 102.21762618 66.96769114 100.16470337 69.87661743 C95.75190527 73.16378368 92.21503457 72.89078776 86.84375 72.83447266 C85.81717285 72.84323425 84.7905957 72.85199585 83.73291016 72.86102295 C80.34234244 72.88301456 76.95308078 72.86846401 73.5625 72.8515625 C71.20507558 72.85493067 68.84765285 72.8597833 66.49023438 72.86605835 C61.55061299 72.87342941 56.61144381 72.86271599 51.671875 72.83935547 C45.33959967 72.81086837 39.00838391 72.82727098 32.67614746 72.85721779 C27.80851251 72.87528398 22.94112884 72.86953567 18.07348633 72.85657883 C15.73868688 72.85324298 13.40386462 72.85733812 11.0690918 72.86897659 C7.80586301 72.88167334 4.54435089 72.86232246 1.28125 72.83447266 C-0.16677002 72.84965439 -0.16677002 72.84965439 -1.64404297 72.86514282 C-6.20188841 72.79306412 -8.29208324 72.66828162 -12.03970337 69.87661743 C-14.52289179 66.35801846 -14.59261808 63.44876187 -14.4609375 59.296875 C-14.45623444 58.55165588 -14.45153137 57.80643677 -14.44668579 57.03863525 C-14.42541927 54.67063098 -14.36882086 52.30490181 -14.3125 49.9375 C-14.29598564 48.3307502 -14.28163944 46.72397655 -14.26953125 45.1171875 C-14.13345808 33.38345808 -14.13345808 33.38345808 -12.9375 32.1875 C-11.27132885 32.14686168 -9.60361905 32.144779 -7.9375 32.1875 C-8.22625 31.46046875 -8.515 30.7334375 -8.8125 29.984375 C-11.58515535 22.47510008 -14.24951289 14.00700562 -11.13671875 6.171875 C-8.24686128 1.57488165 -5.29684794 -0.08761703 0 0 Z M-5.375 7.1875 C-7.92054282 12.07494221 -7.65345539 15.8791057 -6.06640625 20.99609375 C-5.71449219 22.02863281 -5.36257813 23.06117187 -5 24.125 C-2.92673092 30.33025799 -2.40168548 36.05447686 -2.26586914 42.53881836 C-2.16765656 46.28268198 -2.06941698 47.98962452 0.0625 51.1875 C2.47758673 47.5648699 2.38289918 45.49791972 2.5625 41.1875 C2.84027778 34.52083333 2.84027778 34.52083333 5.0625 31.1875 C8.0625 30.8125 8.0625 30.8125 11.0625 31.1875 C13.97651118 35.55851676 13.50389669 39.78102053 13.71875 44.9375 C13.82356824 48.33188396 13.82356824 48.33188396 16.0625 51.1875 C18.523669 47.4957465 18.3480076 44.58517623 18.4375 40.3125 C18.68980229 33.39882873 19.94954577 27.57386021 22.19140625 20.99609375 C23.41723028 17.04377322 23.64875573 14.29129009 23.0625 10.1875 C21.22593011 7.22018602 21.22593011 7.22018602 19.0625 5.1875 C17.7425 5.5175 16.4225 5.8475 15.0625 6.1875 C15.3925 7.5075 15.7225 8.8275 16.0625 10.1875 C14.62318883 9.73488642 13.18611001 9.27517021 11.75 8.8125 C10.94949219 8.55726562 10.14898438 8.30203125 9.32421875 8.0390625 C7.0625 7.1875 7.0625 7.1875 4.0625 5.1875 C-0.09708354 4.65809846 -2.07774422 4.48205936 -5.375 7.1875 Z M66.625 7.1875 C64.07945718 12.07494221 64.34654461 15.8791057 65.93359375 20.99609375 C66.28550781 22.02863281 66.63742188 23.06117187 67 24.125 C69.07326908 30.33025799 69.59831452 36.05447686 69.73413086 42.53881836 C69.83234344 46.28268198 69.93058302 47.98962452 72.0625 51.1875 C74.47758673 47.5648699 74.38289918 45.49791972 74.5625 41.1875 C74.84027778 34.52083333 74.84027778 34.52083333 77.0625 31.1875 C80.0625 30.8125 80.0625 30.8125 83.0625 31.1875 C85.97651118 35.55851676 85.50389669 39.78102053 85.71875 44.9375 C85.82356824 48.33188396 85.82356824 48.33188396 88.0625 51.1875 C90.523669 47.4957465 90.3480076 44.58517623 90.4375 40.3125 C90.68980229 33.39882873 91.94954577 27.57386021 94.19140625 20.99609375 C95.41723028 17.04377322 95.64875573 14.29129009 95.0625 10.1875 C93.22593011 7.22018602 93.22593011 7.22018602 91.0625 5.1875 C89.7425 5.5175 88.4225 5.8475 87.0625 6.1875 C87.3925 7.5075 87.7225 8.8275 88.0625 10.1875 C86.62318883 9.73488642 85.18611001 9.27517021 83.75 8.8125 C82.94949219 8.55726562 82.14898437 8.30203125 81.32421875 8.0390625 C79.0625 7.1875 79.0625 7.1875 76.0625 5.1875 C71.90291646 4.65809846 69.92225578 4.48205936 66.625 7.1875 Z M7.0625 36.1875 C5.15427986 40.00394029 5.64596193 44.69371953 5.44140625 48.90234375 C5.0625 52.1875 5.0625 52.1875 3.0625 55.1875 C0.0625 55.5 0.0625 55.5 -2.9375 55.1875 C-5.78364024 52.34135976 -5.39329076 49.38380858 -5.5625 45.5625 C-5.60117188 44.85609375 -5.63984375 44.1496875 -5.6796875 43.421875 C-5.77397724 41.67751476 -5.85682891 39.93254309 -5.9375 38.1875 C-6.9275 37.8575 -7.9175 37.5275 -8.9375 37.1875 C-9.19303687 41.24879094 -9.41229727 45.31125836 -9.625 49.375 C-9.69783203 50.52548828 -9.77066406 51.67597656 -9.84570312 52.86132812 C-9.90048828 53.97314453 -9.95527344 55.08496094 -10.01171875 56.23046875 C-10.06932373 57.25164795 -10.12692871 58.27282715 -10.1862793 59.32495117 C-9.89110524 62.72133567 -9.00430243 64.49762844 -6.9375 67.1875 C-2.92208676 68.52597108 0.94870423 68.34330755 5.13623047 68.34863281 C6.06497986 68.35359772 6.99372925 68.35856262 7.95062256 68.36367798 C11.02698504 68.37829848 14.10329597 68.38510113 17.1796875 68.390625 C19.3157654 68.39637617 21.45184328 68.40213391 23.58792114 68.40789795 C28.06854493 68.41840736 32.54915077 68.42425055 37.02978516 68.42773438 C42.77220798 68.43322154 48.51439397 68.4572547 54.25674248 68.48570633 C58.66965428 68.50432517 63.08250893 68.50953789 67.4954567 68.51107025 C69.61256328 68.51409858 71.72966882 68.52213314 73.84673691 68.53525543 C76.80800178 68.55230132 79.7686865 68.55043924 82.72998047 68.54394531 C84.04245255 68.55776749 84.04245255 68.55776749 85.38143921 68.5718689 C90.05873468 68.53972194 93.32409672 68.33281977 97.0625 65.1875 C98.1217918 62.00962459 98.17708939 59.76161057 98.16015625 56.42578125 C98.15693359 55.30751953 98.15371094 54.18925781 98.15039062 53.03710938 C98.14201172 51.86986328 98.13363281 50.70261719 98.125 49.5 C98.12048828 48.32115234 98.11597656 47.14230469 98.11132812 45.92773438 C98.09953273 43.01427211 98.0830727 40.10091137 98.0625 37.1875 C96.7425 37.5175 95.4225 37.8475 94.0625 38.1875 C93.98902344 39.65123047 93.98902344 39.65123047 93.9140625 41.14453125 C93.83929688 42.41683594 93.76453125 43.68914062 93.6875 45 C93.61789063 46.26457031 93.54828125 47.52914062 93.4765625 48.83203125 C93.0625 52.1875 93.0625 52.1875 91.0625 55.1875 C88.0625 55.5 88.0625 55.5 85.0625 55.1875 C82.23540056 52.36040056 82.64537674 49.48147824 82.5 45.6875 C82.46076405 40.78795716 82.46076405 40.78795716 81.0625 36.1875 C80.4025 36.1875 79.7425 36.1875 79.0625 36.1875 C77.15427986 40.00394029 77.64596193 44.69371953 77.44140625 48.90234375 C77.0625 52.1875 77.0625 52.1875 75.0625 55.1875 C72.0625 55.5 72.0625 55.5 69.0625 55.1875 C65.90364283 52.02864283 66.6302057 47.78162583 66.49609375 43.50976562 C66.41675615 41.73156851 66.24644144 39.95793638 66.0625 38.1875 C63.33002652 36.82126326 61.08051098 37.059074 58.0625 37.1875 C56.04247919 39.20752081 56.69412271 43.21398589 56.5625 46 C56.09519231 55.73557692 56.09519231 55.73557692 55.0625 58.1875 C51.85696765 61.09466538 48.28332861 62.93316071 44.0625 63.8125 C39.69882151 62.90340031 36.24832168 61.36617858 33.0625 58.1875 C31.94381704 54.74313405 31.98622868 51.47246408 32.0625 47.875 C32.05089844 46.94365234 32.03929687 46.01230469 32.02734375 45.05273438 C32.00384989 42.76208299 32.01666537 40.4776398 32.0625 38.1875 C29.32344655 36.81797327 27.09162668 37.06128639 24.0625 37.1875 C23.4025 37.5175 22.7425 37.8475 22.0625 38.1875 C21.80555491 40.47080749 21.65639775 42.76670012 21.5625 45.0625 C21.28350656 51.85599015 21.28350656 51.85599015 19.0625 55.1875 C16.0625 55.5 16.0625 55.5 13.0625 55.1875 C10.23540056 52.36040056 10.64537674 49.48147824 10.5 45.6875 C10.46076405 40.78795716 10.46076405 40.78795716 9.0625 36.1875 C8.4025 36.1875 7.7425 36.1875 7.0625 36.1875 Z " fill="#000000" transform="translate(19.9375,45.8125)"/>
<path d="M0 0 C0.639375 0.144375 1.27875 0.28875 1.9375 0.4375 C2.2675 0.1075 2.5975 -0.2225 2.9375 -0.5625 C6.3193238 -1.00088457 9.55975531 -1.03979001 12.9375 -0.5625 C16.09585169 1.87206276 17.73731495 4.13722243 19.9375 7.4375 C20.97885562 15.95768235 19.37710269 24.28442366 16.9375 32.4375 C15.9375 33.4375 15.9375 33.4375 14.08984375 33.53515625 C12.0390625 33.50260417 9.98828125 33.47005208 7.9375 33.4375 C7.9375 34.7575 7.9375 36.0775 7.9375 37.4375 C9.2575 37.4375 10.5775 37.4375 11.9375 37.4375 C11.9375 38.7575 11.9375 40.0775 11.9375 41.4375 C9.9575 41.9325 9.9575 41.9325 7.9375 42.4375 C7.9375 43.4275 7.9375 44.4175 7.9375 45.4375 C9.2575 45.4375 10.5775 45.4375 11.9375 45.4375 C11.9375 46.7575 11.9375 48.0775 11.9375 49.4375 C9.9575 49.9325 9.9575 49.9325 7.9375 50.4375 C8.040625 51.51 8.14375 52.5825 8.25 53.6875 C7.9375 57.4375 7.9375 57.4375 5.8125 59.875 C2.42151457 61.71792686 0.73902049 62.07108675 -3.0625 61.4375 C-5.9375 59.8125 -5.9375 59.8125 -8.0625 57.4375 C-8.375 54.1875 -8.375 54.1875 -8.0625 51.4375 C-9.7125 51.1075 -11.3625 50.7775 -13.0625 50.4375 C-12.7325 49.4475 -12.4025 48.4575 -12.0625 47.4375 C-10 46.75 -10 46.75 -8.0625 46.4375 C-8.0625 45.4475 -8.0625 44.4575 -8.0625 43.4375 C-9.7125 43.1075 -11.3625 42.7775 -13.0625 42.4375 C-12.7325 41.4475 -12.4025 40.4575 -12.0625 39.4375 C-10 38.75 -10 38.75 -8.0625 38.4375 C-8.0625 36.7875 -8.0625 35.1375 -8.0625 33.4375 C-10.7025 33.4375 -13.3425 33.4375 -16.0625 33.4375 C-22.75159091 14.32581169 -22.75159091 14.32581169 -19.26953125 5.40625 C-14.5696679 -1.94066283 -7.77341022 -1.42776922 0 0 Z M-13.5 6.375 C-17.46429731 14.14502273 -14.30408086 21.21837018 -12.0625 29.4375 C-4.1425 29.4375 3.7775 29.4375 11.9375 29.4375 C15.02843535 19.53907524 15.02843535 19.53907524 14.9375 9.4375 C13.12159021 6.41059557 13.12159021 6.41059557 10.9375 4.4375 C9.6175 4.7675 8.2975 5.0975 6.9375 5.4375 C7.2675 6.7575 7.5975 8.0775 7.9375 9.4375 C6.49818883 8.98488642 5.06111001 8.52517021 3.625 8.0625 C2.82449219 7.80726562 2.02398437 7.55203125 1.19921875 7.2890625 C-1.0625 6.4375 -1.0625 6.4375 -4.0625 4.4375 C-8.18255643 3.91312918 -10.19557895 3.74840891 -13.5 6.375 Z M-4.0625 33.4375 C-4.0625 35.0875 -4.0625 36.7375 -4.0625 38.4375 C-1.4225 38.1075 1.2175 37.7775 3.9375 37.4375 C3.9375 36.1175 3.9375 34.7975 3.9375 33.4375 C1.2975 33.4375 -1.3425 33.4375 -4.0625 33.4375 Z M-4.0625 43.4375 C-4.0625 44.4275 -4.0625 45.4175 -4.0625 46.4375 C-1.4225 46.1075 1.2175 45.7775 3.9375 45.4375 C3.9375 44.4475 3.9375 43.4575 3.9375 42.4375 C0.82492431 42.4375 -1.17015685 42.61111624 -4.0625 43.4375 Z M-4.0625 51.4375 C-3.4025 52.7575 -2.7425 54.0775 -2.0625 55.4375 C-0.4125 55.1075 1.2375 54.7775 2.9375 54.4375 C3.2675 53.1175 3.5975 51.7975 3.9375 50.4375 C0.82492431 50.4375 -1.17015685 50.61111624 -4.0625 51.4375 Z " fill="#000000" transform="translate(64.0625,10.5625)"/>
</svg>
