<?xml version="1.0" encoding="UTF-8"?>
<svg version="1.1" xmlns="http://www.w3.org/2000/svg" width="512" height="512">
<path d="M0 0 C2.60546875 1.9765625 2.60546875 1.9765625 3.86987305 3.52905273 C6.07592791 6.21170728 7.56779189 7.77999134 11.05932617 8.44140625 C13.99137905 8.53215474 16.86404594 8.44999232 19.79296875 8.2890625 C21.76544645 8.21754881 23.73811547 8.15112771 25.7109375 8.08984375 C26.68506592 8.0525415 27.65919434 8.01523926 28.6628418 7.97680664 C31.65606325 7.9765583 34.48380387 8.29072698 37.44921875 8.6796875 C42.37926574 9.18993568 44.83895672 8.4112256 48.91796875 5.4140625 C50.01853952 4.66076241 51.1241879 3.91483582 52.234375 3.17578125 C52.79012207 2.80243652 53.34586914 2.4290918 53.91845703 2.04443359 C72.78391699 -9.89732066 98.25071713 -12.1700746 119.76831055 -7.88842773 C130.31403733 -5.41266757 139.97628125 -0.88855922 149.60546875 3.9765625 C150.26546875 3.2546875 150.92546875 2.5328125 151.60546875 1.7890625 C160.714113 -7.21752411 171.12900293 -9.33972861 183.6015625 -9.421875 C186.60546875 -9.0234375 186.60546875 -9.0234375 188.4609375 -7.7109375 C190.37328406 -4.89136851 190.48977834 -2.37845942 190.60546875 0.9765625 C189.30675502 4.41433414 188.38395162 5.61580215 185.04296875 7.1640625 C183.13161769 7.61583639 181.21151574 8.0412315 179.2734375 8.359375 C166.90451789 10.44936142 160.30534184 17.86894343 152.35546875 27.0390625 C151.7819165 27.69664551 151.20836426 28.35422852 150.61743164 29.03173828 C147.18764619 33.00600278 144.05867018 37.05680671 141.04296875 41.3515625 C132.21858729 53.25086454 120.70805892 58.84936661 106.4453125 61.58203125 C92.45857356 63.5251683 80.00863147 59.09609198 68.60546875 50.9765625 C64.40894889 47.52366388 60.51914425 43.74212219 56.60546875 39.9765625 C47.01797325 31.16493369 36.41354439 25.07736426 22.98046875 24.5390625 C7.9781927 25.42317453 -7.59206248 32.73397029 -17.95703125 43.6171875 C-20.32933886 45.86056535 -22.18337612 45.9765625 -25.39453125 45.9765625 C-28.98481834 43.74110073 -30.92020869 42.04378827 -32.64453125 38.1640625 C-32.25426505 33.18816851 -29.85978178 30.44831444 -26.39453125 26.9765625 C-23.69277021 24.80726532 -20.93429019 22.7967658 -18.078125 20.8359375 C-15.41566332 18.99120422 -12.90168733 17.02581123 -10.39453125 14.9765625 C-16.70518929 10.47140608 -22.43064108 7.39951846 -30.3515625 8.3203125 C-36.56078389 9.63244985 -41.07093688 11.60736991 -45.87109375 15.76953125 C-47.39453125 16.9765625 -47.39453125 16.9765625 -49.39453125 16.9765625 C-49.80070679 17.84293335 -49.80070679 17.84293335 -50.21508789 18.72680664 C-51.39989747 20.98679841 -52.76142804 22.91447396 -54.265625 24.97265625 C-57.86662597 30.33098941 -59.66488114 35.8764025 -61.45703125 42.0390625 C-61.96290771 43.73458252 -61.96290771 43.73458252 -62.47900391 45.46435547 C-78.07224875 99.04516093 -76.16821026 153.86925561 -59.07476807 206.86730957 C-58.33274361 209.16815131 -57.59477847 211.47027562 -56.85693359 213.77246094 C-51.89811174 229.22237874 -46.85145418 244.64311519 -41.70263672 260.03076172 C-40.70649047 263.00871712 -39.71054063 265.98673807 -38.71484375 268.96484375 C-38.46012928 269.72664129 -38.20541481 270.48843884 -37.94298172 271.27332115 C-34.21756668 282.42349829 -30.56024661 293.59398971 -26.95597839 304.78388786 C-25.42034127 309.5471608 -23.87664473 314.30783066 -22.33358002 319.06870174 C-21.02878585 323.09728952 -19.73002929 327.12767307 -18.44189453 331.16162109 C-17.15762246 335.18218198 -15.85835565 339.19761851 -14.5489006 343.21004486 C-14.06270335 344.70884428 -13.5818378 346.20938579 -13.1068306 347.7117691 C-10.25900954 356.70842557 -7.46323195 364.611848 -0.14453125 370.9140625 C5.44301834 373.07288848 11.1680143 373.76821398 16.91796875 371.8515625 C22.4823906 369.38347216 25.78148376 365.25128245 28.60546875 359.9765625 C29.54883829 356.92550506 29.54883829 356.92550506 30.2277832 353.5793457 C30.50850174 352.30223221 30.78922028 351.02511871 31.07844543 349.70930481 C31.3753431 348.31534536 31.67210752 346.92135753 31.96875 345.52734375 C32.28555366 344.07201671 32.60321259 342.61687562 32.92167664 341.16191101 C33.76075735 337.31846673 34.58922165 333.47281268 35.41516113 329.62652588 C36.23548669 325.81297794 37.06398797 322.00121245 37.89257812 318.18945312 C38.05429945 317.4451045 38.21602077 316.70075588 38.38264275 315.93385124 C39.97001586 308.62959042 41.56206179 301.32635761 43.15869904 294.02411652 C43.59495244 292.02475895 44.02867739 290.02486767 44.46185303 288.02484131 C45.24230493 284.43722304 46.03684945 280.85303782 46.8359375 277.26953125 C47.05897049 276.23250565 47.28200348 275.19548004 47.51179504 274.12702942 C49.91709846 263.48692061 54.33940299 255.29026027 62.60546875 247.9765625 C72.22635425 242.00123211 80.99469205 239.48453364 92.265625 241.4375 C102.45853007 244.11569762 110.55962696 251.1231517 115.89453125 260.16015625 C118.66970619 265.60069705 120.67129094 270.75119199 119.60546875 276.9765625 C117.16418144 280.42308576 115.77580001 281.75712539 111.60546875 282.5390625 C107.68607491 281.80417615 106.29914748 280.95378636 103.60546875 277.9765625 C102.46511886 275.48125814 101.51057799 272.95153034 100.55859375 270.37890625 C98.53248264 265.27210981 95.38919619 262.24884549 90.5234375 259.70703125 C85.63919428 257.84684086 81.19378543 258.46623583 76.48046875 260.3515625 C70.37553212 263.94238956 67.5350502 269.97419001 65.49066162 276.57717896 C64.40987073 280.79690487 63.53558265 285.05813931 62.66015625 289.32421875 C62.32124062 290.90623316 61.98064043 292.48788752 61.63845825 294.06919861 C60.74607611 298.21361268 59.87535 302.36227237 59.00964355 306.5123291 C58.13583178 310.68465435 57.24342701 314.85298722 56.3515625 319.02148438 C55.34247105 323.73862018 54.3345857 328.45591168 53.34420776 333.17701721 C51.79519428 340.54732748 50.1952582 347.90347557 48.49267578 355.23999023 C48.33181929 355.94179193 48.17096279 356.64359362 48.00523186 357.36666203 C45.30299331 368.86454473 39.67735515 379.30814262 29.60546875 385.9765625 C19.15386802 391.17743854 8.28711417 392.78547628 -2.91015625 389.08203125 C-14.72994471 383.82259707 -21.44791433 373.42370742 -26.39453125 361.9765625 C-26.59740753 361.21229446 -26.80028381 360.44802643 -27.00930786 359.66059875 C-29.61979351 350.55484712 -35.33166963 345.16750068 -41.94140625 338.81640625 C-43.08079815 337.6951874 -44.21848678 336.57223531 -45.35455322 335.44764709 C-48.32504142 332.51492429 -51.31509999 329.60305139 -54.31085205 326.69616699 C-59.12415467 322.01824502 -63.90555762 317.30768546 -68.68900299 312.59927559 C-70.36079098 310.95917813 -72.04030865 309.32734263 -73.72137451 307.69676208 C-74.73982909 306.7015324 -75.75816655 305.70618285 -76.77636719 304.71069336 C-77.67031189 303.84230331 -78.56425659 302.97391327 -79.48529053 302.07920837 C-81.39453125 299.9765625 -81.39453125 299.9765625 -81.39453125 297.9765625 C-82.05453125 297.9765625 -82.71453125 297.9765625 -83.39453125 297.9765625 C-89.58297597 291.30887795 -94.78150396 283.96298201 -98.89453125 275.8515625 C-99.20793457 275.24441406 -99.52133789 274.63726562 -99.84423828 274.01171875 C-105.20237102 262.89161804 -105.95896095 251.17806927 -106.56640625 239.04296875 C-107.15747166 229.11988981 -108.51415004 219.59662546 -113.39453125 210.7890625 C-121.57010392 195.18667009 -122.02933589 178.24562541 -123.39453125 160.9765625 C-123.99418701 161.25081055 -124.59384277 161.52505859 -125.21166992 161.80761719 C-126.00806885 162.16758789 -126.80446777 162.52755859 -127.625 162.8984375 C-128.41028076 163.25518555 -129.19556152 163.61193359 -130.00463867 163.97949219 C-137.84756778 167.2515856 -144.6843032 166.9765625 -153.39453125 166.9765625 C-153.39453125 267.2965625 -153.39453125 367.6165625 -153.39453125 470.9765625 C-144.15453125 470.9765625 -134.91453125 470.9765625 -125.39453125 470.9765625 C-121.39453125 474.9765625 -121.39453125 474.9765625 -120.86328125 476.9765625 C-120.87359375 477.6365625 -120.88390625 478.2965625 -120.89453125 478.9765625 C-120.88421875 479.6365625 -120.87390625 480.2965625 -120.86328125 480.9765625 C-121.67441701 484.03025006 -122.86433413 485.06768019 -125.39453125 486.9765625 C-128.39189346 487.57770803 -131.34562402 487.53714014 -134.39453125 487.5078125 C-135.26722656 487.5116394 -136.13992187 487.51546631 -137.0390625 487.51940918 C-138.88152217 487.5221274 -140.72402049 487.51477244 -142.56640625 487.49804688 C-145.38499059 487.47663498 -148.2010261 487.49785051 -151.01953125 487.5234375 C-152.81120354 487.52079421 -154.60287424 487.51566919 -156.39453125 487.5078125 C-157.23628906 487.51590942 -158.07804687 487.52400635 -158.9453125 487.53234863 C-159.73292969 487.51973999 -160.52054688 487.50713135 -161.33203125 487.49414062 C-162.02167969 487.49095825 -162.71132812 487.48777588 -163.421875 487.48449707 C-166.3310571 486.73541868 -167.49922823 485.27151063 -169.39453125 482.9765625 C-169.89477724 480.43482316 -169.89477724 480.43482316 -169.8951025 477.50357246 C-169.90491679 476.38462188 -169.91473108 475.26567129 -169.92484277 474.11281312 C-169.91523777 472.88345374 -169.90563276 471.65409437 -169.89573669 470.38748169 C-169.90127109 469.08156063 -169.90680549 467.77563957 -169.91250759 466.43014514 C-169.92729456 462.80211383 -169.9170621 459.17451512 -169.90277088 455.54649758 C-169.89168299 451.63501085 -169.90359652 447.7235859 -169.91261292 443.81210327 C-169.92656312 436.147703 -169.91897574 428.48346723 -169.90393733 420.81907476 C-169.8870944 411.8959186 -169.89028541 402.97280361 -169.89403141 394.04963647 C-169.89991343 378.12827254 -169.88572596 362.20698764 -169.86108398 346.28564453 C-169.83717029 330.83314043 -169.83007615 315.38074194 -169.84057617 299.92822266 C-169.85198474 283.1084512 -169.85391557 266.28872864 -169.83947808 249.46895778 C-169.83795222 247.67540988 -169.83643186 245.88186197 -169.83491707 244.08831406 C-169.83378035 242.76457746 -169.83378035 242.76457746 -169.83262066 241.41409872 C-169.82787673 235.19318413 -169.82973011 228.97229136 -169.83398247 222.75137711 C-169.83890861 215.16927208 -169.83292737 207.58726694 -169.81308817 200.00518478 C-169.80321404 196.13610659 -169.79811226 192.2671805 -169.80598068 188.39809418 C-169.81433329 184.205122 -169.79946154 180.01255552 -169.7822113 175.8196106 C-169.78822135 174.59471267 -169.79423139 173.36981474 -169.80042356 172.1077987 C-169.74398446 164.59033838 -169.11648316 159.89768162 -163.83203125 154.2265625 C-159.10697229 150.5927948 -153.25382677 150.32045074 -147.50390625 149.62890625 C-137.46331112 148.27526581 -129.40962626 144.61187805 -121.58203125 138.1640625 C-117.90620876 135.17288688 -115.30683883 133.69316014 -110.39453125 133.9765625 C-107.74267578 135.47021484 -107.74267578 135.47021484 -105.39453125 137.9765625 C-104.84307994 140.91444712 -104.60661752 143.31833191 -104.57421875 146.265625 C-104.54401642 147.08292084 -104.51381409 147.90021667 -104.48269653 148.74227905 C-104.38885564 151.36189253 -104.32700573 153.98091923 -104.26953125 156.6015625 C-103.76981954 181.38000036 -103.76981954 181.38000036 -96.39453125 204.7890625 C-90.82214605 217.23674687 -89.17871589 228.71068084 -88.15161133 242.23852539 C-86.93115823 257.70366989 -82.89608952 272.18377831 -71.6796875 283.5234375 C-70.39453125 284.9765625 -70.39453125 284.9765625 -70.39453125 286.9765625 C-69.77578125 287.2240625 -69.15703125 287.4715625 -68.51953125 287.7265625 C-65.99094498 289.21396619 -65.67614121 290.41334259 -64.39453125 292.9765625 C-63.73453125 293.3065625 -63.07453125 293.6365625 -62.39453125 293.9765625 C-59.86607597 295.24079014 -59.63030361 296.50501778 -58.39453125 298.9765625 C-57.8325 299.23179687 -57.27046875 299.48703125 -56.69140625 299.75 C-53.46742681 301.47164888 -51.15901748 304.00128016 -48.64453125 306.6015625 C-48.13792969 307.1171875 -47.63132812 307.6328125 -47.109375 308.1640625 C-45.86649223 309.43039589 -44.62987849 310.7028769 -43.39453125 311.9765625 C-48.21748318 296.29063966 -53.1220266 280.6396693 -58.35238647 265.08441162 C-63.09720296 250.97082015 -67.77139277 236.8345724 -72.3421936 222.66360474 C-72.98899903 220.66272557 -73.63906805 218.66289767 -74.29281616 216.66427612 C-93.8317886 156.87307602 -96.41430154 93.0096452 -75.89453125 32.9765625 C-75.5392334 31.93330811 -75.18393555 30.89005371 -74.81787109 29.81518555 C-69.22214498 14.13019567 -61.46606702 1.83164258 -46.39453125 -6.0234375 C-30.65481606 -13.44434349 -13.87546802 -8.85846824 0 0 Z M58.60546875 17.9765625 C75.96260216 36.51386799 75.96260216 36.51386799 99.10546875 44.4765625 C112.05213175 43.89387162 121.32198312 35.71052753 130 26.78515625 C132.75613119 23.68031746 135.20561982 20.36096484 137.60546875 16.9765625 C111.44040898 2.88768416 84.80074507 5.56827372 58.60546875 17.9765625 Z " fill="#000000" transform="translate(177.39453125,17.0234375)"/>
<path d="M0 0 C4.66540557 0.81849221 6.28145356 2.26392804 9.5625 5.625 C9.5625 6.285 9.5625 6.945 9.5625 7.625 C10.2225 7.625 10.8825 7.625 11.5625 7.625 C13.10864182 9.67842214 14.50510767 11.70726755 15.875 13.875 C16.28089355 14.51687256 16.68678711 15.15874512 17.10498047 15.82006836 C20.63669897 21.53488959 23.3043983 27.29095371 25.5625 33.625 C25.82772461 34.35009766 26.09294922 35.07519531 26.36621094 35.82226562 C35.05235988 59.74064678 40.24674468 84.77396597 40.8359375 110.2421875 C40.88657822 111.95891923 40.93777015 113.67563479 40.98950195 115.39233398 C41.09076512 118.78974722 41.12585777 122.17962454 41.12573242 125.57836914 C41.13717747 133.9575902 41.13717747 133.9575902 44.61645508 141.36523438 C47.16310326 143.45125917 49.67305263 145.05613808 52.5625 146.625 C53.85615764 147.47030082 55.14920635 148.31653493 56.44140625 149.1640625 C57.66165651 149.8726528 58.88970229 150.56798059 60.125 151.25 C60.794104 151.62261963 61.46320801 151.99523926 62.15258789 152.37915039 C73.33513453 158.39513484 85.80513274 162.69111577 98.4453125 164.0390625 C99.15228271 164.11608398 99.85925293 164.19310547 100.58764648 164.27246094 C101.99173357 164.42020952 103.39762382 164.55201303 104.80493164 164.66503906 C110.95920806 165.29082082 114.60053439 167.44885441 118.70336151 171.99957085 C121.77206527 176.80820308 121.11240921 182.43069572 121.07043457 187.93655396 C121.07979451 189.81436092 121.07979451 189.81436092 121.08934355 191.73010337 C121.10602668 195.19785284 121.09779554 198.66516144 121.08539867 202.1329124 C121.0763464 205.87527994 121.09031864 209.61757181 121.10131836 213.35992432 C121.11910529 220.68782266 121.11526317 228.01555712 121.1036678 235.34346189 C121.09463579 241.29772276 121.09340845 247.2519377 121.09776306 253.20620346 C121.09837599 254.05349617 121.09898893 254.90078888 121.09962043 255.77375712 C121.10089932 257.49496701 121.10219617 259.21617688 121.1035108 260.93738674 C121.11491674 277.07658275 121.10180195 293.21568788 121.08030933 309.35486899 C121.06243186 323.20846726 121.06554776 337.06193149 121.08398438 350.91552734 C121.1053797 366.99990194 121.11382492 383.08419692 121.10153532 399.16858375 C121.10026111 400.88286518 121.09900362 402.59714662 121.09776306 404.31142807 C121.09683741 405.57665552 121.09683741 405.57665552 121.09589306 406.86744312 C121.09243662 412.81682114 121.09827468 418.76614874 121.10768127 424.71551895 C121.1188875 431.96242032 121.11589006 439.20914834 121.0945583 446.45602979 C121.08403019 450.15480079 121.07995577 453.85328254 121.09315491 457.55205154 C121.10723231 461.55742511 121.09044914 465.56206531 121.07043457 469.56741333 C121.0838189 471.32974247 121.0838189 471.32974247 121.09747362 473.12767422 C121.08182714 474.73294879 121.08182714 474.73294879 121.06586456 476.37065315 C121.06521515 477.2954372 121.06456574 478.22022125 121.06389666 479.17302907 C120.38367285 482.49951516 119.30275555 483.64712186 116.5625 485.625 C113.69785786 486.12754732 113.69785786 486.12754732 110.30305481 486.13115788 C108.36152417 486.14772941 108.36152417 486.14772941 106.38077068 486.16463572 C104.94110091 486.15667809 103.5014332 486.14834039 102.06176758 486.1396637 C100.53498315 486.1449868 99.00820397 486.15205112 97.48143482 486.16071075 C93.27950035 486.17939644 89.07791689 486.17301289 84.8759675 486.16255772 C80.34691673 486.15558248 75.8179393 486.17155081 71.28890991 486.18455505 C62.41400691 486.20622809 53.53923196 486.20605978 44.66431117 486.19792951 C37.45332903 486.19163699 30.24238432 486.19275966 23.03140259 486.19920158 C21.49362238 486.20055407 21.49362238 486.20055407 19.9247759 486.20193387 C17.84231495 486.20378502 15.75985401 486.20564758 13.67739308 486.20752143 C-5.86298523 486.22411126 -25.4032914 486.21537047 -44.94366539 486.19853585 C-62.8336507 486.18383613 -80.72346812 486.19846905 -98.61343181 486.22730602 C-116.96951755 486.2566747 -135.32552573 486.2676798 -153.68163395 486.25812382 C-155.75655682 486.25710123 -157.8314797 486.25610662 -159.90640259 486.2551403 C-160.92738059 486.25466391 -161.94835859 486.25418752 -163.00027531 486.2536967 C-170.20499647 486.25152932 -177.40964445 486.26135379 -184.61434937 486.27591133 C-193.39109717 486.29339743 -202.16763079 486.29337094 -210.94437003 486.27055968 C-215.42491417 486.25938378 -219.90508045 486.25633026 -224.38560867 486.27486038 C-228.48398033 486.29159235 -232.58164245 486.28541423 -236.67996752 486.26064359 C-238.16577423 486.25573578 -239.65163739 486.25934234 -241.13739717 486.27213103 C-243.1508973 486.28821709 -245.16458314 486.27073587 -247.17805481 486.25141239 C-248.29833982 486.2511427 -249.41862482 486.25087301 -250.57285786 486.25059515 C-253.4375 485.625 -253.4375 485.625 -255.79746532 483.30850548 C-257.94771406 479.79016264 -258.02745612 477.68094835 -257.4375 473.625 C-255.3187216 470.82218538 -254.13864097 469.74974396 -250.64519954 469.12820601 C-249.01619932 469.13048434 -249.01619932 469.13048434 -247.35429001 469.13280869 C-246.0992702 469.12484449 -244.84425039 469.1168803 -243.55119967 469.10867476 C-242.15593598 469.12008699 -240.76067527 469.13186937 -239.36541748 469.14398193 C-237.88528373 469.14223813 -236.40515118 469.13873674 -234.92502522 469.13362527 C-230.85214166 469.1246638 -226.77967732 469.14070474 -222.70684719 469.16073751 C-218.31696508 469.17798139 -213.92710737 469.17216799 -209.53720093 469.16912842 C-201.92955658 469.16702911 -194.32204927 469.17959894 -186.71443939 469.20207977 C-175.71508134 469.23456225 -164.71578967 469.24500294 -153.71638885 469.25003174 C-135.8714352 469.25879029 -118.0265546 469.28542105 -100.18164062 469.32324219 C-82.84505575 469.35994779 -65.5084908 469.3882208 -48.171875 469.40527344 C-46.55308386 469.40688142 -46.55308386 469.40688142 -44.90158987 469.40852189 C-36.46181714 469.41683938 -28.02204396 469.42466715 -19.58227062 469.43234015 C21.79938664 469.47008762 63.18086105 469.55055772 104.5625 469.625 C104.5625 374.585 104.5625 279.545 104.5625 181.625 C98.6225 181.295 92.6825 180.965 86.5625 180.625 C69.51415573 177.93731667 53.30401587 171.12384424 39.5625 160.625 C38.52896746 165.65561265 37.53771531 170.68678122 36.68212891 175.75097656 C33.05947632 196.62340229 27.34119328 216.92920901 21.76429749 237.34429932 C20.36489874 242.4739215 18.97545249 247.60623889 17.58496094 252.73828125 C15.61113511 260.01972423 13.63362369 267.30014842 11.65167236 274.57938385 C8.59112857 285.82122164 5.55544014 297.06947982 2.53897476 308.3232193 C1.24138613 313.16156224 -0.06030945 317.99880158 -1.3621769 322.83599472 C-2.36671114 326.56920868 -3.36929361 330.30292002 -4.36700439 334.03796387 C-5.2907295 337.49507076 -6.22124576 340.95028096 -7.15682602 344.40419769 C-7.64680969 346.21963079 -8.12988222 348.03692503 -8.61257935 349.85430908 C-12.93541974 365.745949 -16.77614237 378.0540855 -31.4375 386.625 C-39.69377327 391.00051561 -50.34454638 390.85507139 -59.33984375 389.0390625 C-67.63888785 386.18093989 -74.80609676 379.85810997 -79.3125 372.375 C-84.65208537 361.12875996 -86.95197177 348.60268105 -89.58447266 336.51171875 C-90.19138757 333.73219585 -90.81203132 330.95596713 -91.43359375 328.1796875 C-91.82634778 326.39341079 -92.21830366 324.60695836 -92.609375 322.8203125 C-92.7936908 322.00039825 -92.97800659 321.18048401 -93.16790771 320.33572388 C-95.63924245 308.8362061 -95.63924245 308.8362061 -92.875 303.75 C-89.62173621 300.91382131 -87.74194539 300.47657085 -83.4375 300.625 C-78.94972708 303.58599384 -76.87913876 305.64761388 -75.6401825 311.06784058 C-75.50884415 311.75057037 -75.3775058 312.43330017 -75.2421875 313.13671875 C-75.00463493 314.21954636 -75.00463493 314.21954636 -74.76228333 315.32424927 C-74.25729096 317.64961955 -73.78494763 319.98032316 -73.3125 322.3125 C-72.97081086 323.90829151 -72.6268117 325.50359013 -72.28051758 327.09838867 C-71.45226993 330.93376471 -70.64752213 334.7735061 -69.85345459 338.61608887 C-69.12082623 342.15442046 -68.36953845 345.68862277 -67.60400391 349.2199707 C-67.16451193 351.25458111 -66.74344726 353.29314917 -66.32421875 355.33203125 C-64.47510088 362.19901963 -61.50389153 366.92598077 -55.4375 370.625 C-49.71408778 372.86706396 -44.24921797 373.32888402 -38.53720093 370.8404541 C-30.18045623 366.0029844 -28.65303455 352.84580666 -26.3359375 344.21875 C-25.85909578 342.48149406 -25.38107407 340.74456162 -24.90194702 339.00793457 C-23.90201235 335.37476585 -22.90984053 331.73960984 -21.92419434 328.10253906 C-20.49730945 322.83800159 -19.05226847 317.57859799 -17.60253906 312.3203125 C-14.7397332 301.9262671 -11.89976016 291.52604257 -9.0625 281.125 C-7.04801877 273.74187495 -5.03251438 266.35903007 -3.015625 258.9765625 C-2.64884455 257.63365332 -2.64884455 257.63365332 -2.27465439 256.26361465 C0.69883772 245.38039535 3.70020768 234.50618256 6.765625 223.6484375 C14.90980728 194.92353521 14.90980728 194.92353521 20.5625 165.625 C20.7486084 164.47378662 20.7486084 164.47378662 20.93847656 163.29931641 C27.50991489 121.73817233 24.95208442 59.64398309 0.62890625 23.7734375 C-0.58177984 22.238765 -1.82583646 20.72916312 -3.1171875 19.26171875 C-4.4375 17.625 -4.4375 17.625 -4.4375 15.625 C-5.0975 15.625 -5.7575 15.625 -6.4375 15.625 C-8.93781654 11.87452518 -8.97353554 10.06643734 -8.4375 5.625 C-5.86890902 1.96670376 -4.41498801 0.80272509 0 0 Z " fill="#000000" transform="translate(383.4375,18.375)"/>
<path d="M0 0 C0.66 -0.00773438 1.32 -0.01546875 2 -0.0234375 C4.81995949 0.53835131 5.98418713 1.28926571 8 3.375 C8.40078348 6.15939262 8.54020465 8.55262084 8.50793457 11.33958435 C8.51729451 12.5703869 8.51729451 12.5703869 8.52684355 13.82605416 C8.54284412 16.58541582 8.53014194 19.34390272 8.51757812 22.10327148 C8.52299615 24.07749956 8.53011701 26.0517236 8.53881836 28.02593994 C8.55709376 33.39579466 8.54996645 38.76534286 8.53730202 44.13520312 C8.52719476 49.74810807 8.53656149 55.36098627 8.54284668 60.97389221 C8.55013032 70.40199509 8.54051719 79.82997276 8.52148438 89.25805664 C8.49972063 100.16502467 8.5067606 111.07169357 8.52879 121.97865433 C8.54693108 131.33413998 8.54950844 140.68953548 8.53903532 150.04503304 C8.53279249 155.63653693 8.53198636 161.22790016 8.54518127 166.81939507 C8.55672009 172.07665915 8.54874992 177.333537 8.52560425 182.59075928 C8.52030637 184.52253134 8.5218493 186.45433579 8.53065491 188.38609505 C8.54155164 191.01898238 8.52791842 193.65062448 8.50793457 196.28343201 C8.5213189 197.43600633 8.5213189 197.43600633 8.53497362 198.61186498 C8.48301757 202.12978073 8.27175054 204.02261503 6.09325409 206.84751987 C3.82387707 208.50351965 2.77552408 208.91836756 0 208.875 C-0.66 208.8853125 -1.32 208.895625 -2 208.90625 C-5.01565693 208.10521613 -6.09534258 206.84481168 -8 204.375 C-8.39283694 201.54760572 -8.54075506 199.10972648 -8.50793457 196.28343201 C-8.51417453 195.46133698 -8.5204145 194.63924195 -8.52684355 193.79223496 C-8.54281649 191.03364411 -8.53015275 188.27593161 -8.51757812 185.51733398 C-8.52299729 183.54133589 -8.5301188 181.56534184 -8.53881836 179.58935547 C-8.55707779 174.21962697 -8.54997362 168.85020534 -8.53730202 163.48047137 C-8.52718937 157.86710441 -8.53656273 152.25376409 -8.54284668 146.64039612 C-8.55012754 137.2140734 -8.54052321 127.78787597 -8.52148438 118.36157227 C-8.49970855 107.4539955 -8.50677049 96.54671771 -8.52879 85.63914818 C-8.54692394 76.28280874 -8.54951233 66.92655946 -8.53903532 57.57020813 C-8.53279017 51.97819208 -8.53199293 46.3863167 -8.54518127 40.79430962 C-8.55671018 35.53867676 -8.54876824 30.28343061 -8.52560425 25.02783966 C-8.52030158 23.09564673 -8.5218574 21.16342141 -8.53065491 19.23124123 C-8.54153256 16.60024507 -8.52794202 13.97050005 -8.50793457 11.33958435 C-8.51685746 10.56897075 -8.52578034 9.79835714 -8.53497362 9.00439161 C-8.45855843 3.8494642 -8.45855843 3.8494642 -6.09325409 1.40211582 C-3.86765015 0.31005871 -2.4661986 -0.02890076 0 0 Z " fill="#000000" transform="translate(464,215.625)"/>
<path d="M0 0 C2.19873047 1.01098633 2.19873047 1.01098633 4 3 C4.33334147 5.86615855 4.41887954 8.34182159 4.3203125 11.19921875 C4.30900299 12.01791946 4.29769348 12.83662018 4.28604126 13.68013 C4.26091043 15.43670853 4.22741054 17.19318332 4.18640137 18.94946289 C4.08363053 23.53226582 4.05428225 28.11545346 4.0234375 32.69921875 C4.01638794 33.60098846 4.00933838 34.50275818 4.0020752 35.43185425 C3.94317858 46.03628715 4.63444435 56.4850337 6 67 C6.12358887 67.95616211 6.24717773 68.91232422 6.37451172 69.89746094 C8.15879406 83.05140662 11.01513719 95.72403794 14.80151367 108.44873047 C15.10033447 109.47885254 15.39915527 110.50897461 15.70703125 111.5703125 C15.9800708 112.47539551 16.25311035 113.38047852 16.53442383 114.31298828 C17.26752854 118.54400584 16.8042626 121.82453927 14.375 125.375 C11.03215555 127.66220936 8.97228262 127.55751335 5 127 C1.90118655 125.39733242 0.34765432 123.84064305 -0.99047852 120.60498047 C-1.95458096 117.4856229 -2.77907125 114.35710596 -3.5625 111.1875 C-3.85987061 110.02984131 -4.15724121 108.87218262 -4.46362305 107.67944336 C-10.27348764 84.47323848 -13.37929098 61.05320481 -13.26074219 37.13598633 C-13.24990188 34.53899359 -13.26078477 31.94267683 -13.2734375 29.34570312 C-13.29539355 9.24803936 -13.29539355 9.24803936 -11 3 C-7.48258876 -0.38201955 -4.81309925 -0.51568921 0 0 Z " fill="#000000" transform="translate(133,104)"/>
<path d="M0 0 C2.80811128 1.87389527 4.02283859 4.07561034 5.7578125 6.96484375 C6.09562744 7.5273584 6.43344238 8.08987305 6.78149414 8.66943359 C22.03733073 34.54980783 22.03733073 34.54980783 18.39453125 48.7265625 C15.68558775 54.80080145 10.57949216 59.54201842 4.6796875 62.51171875 C-1.8973799 64.55022502 -10.25995152 64.61951892 -16.5546875 61.65234375 C-22.55105407 57.9829254 -26.95580676 53.11325991 -28.9921875 46.33984375 C-31.1490441 29.30285525 -20.99245667 13.47876168 -10.9921875 0.33984375 C-7.55303841 -1.37973079 -3.62163364 -1.20010997 0 0 Z M-5.9921875 24.33984375 C-11.57526498 33.21445776 -11.57526498 33.21445776 -11.9921875 43.33984375 C-11.15885417 45.50651042 -11.15885417 45.50651042 -8.9921875 46.33984375 C-5.4082916 46.86249524 -2.23589257 47.00056207 1.0078125 45.27734375 C2.62037175 42.1530102 2.75968477 39.69704085 2.0078125 36.33984375 C0.22884961 32.21471241 -1.82283792 28.27178986 -3.9921875 24.33984375 C-4.6521875 24.33984375 -5.3121875 24.33984375 -5.9921875 24.33984375 Z " fill="#000000" transform="translate(116.9921875,360.66015625)"/>
<path d="M0 0 C2.80811128 1.87389527 4.02283859 4.07561034 5.7578125 6.96484375 C6.09562744 7.5273584 6.43344238 8.08987305 6.78149414 8.66943359 C22.03733073 34.54980783 22.03733073 34.54980783 18.39453125 48.7265625 C15.68558775 54.80080145 10.57949216 59.54201842 4.6796875 62.51171875 C-1.8973799 64.55022502 -10.25995152 64.61951892 -16.5546875 61.65234375 C-22.55105407 57.9829254 -26.95580676 53.11325991 -28.9921875 46.33984375 C-31.1490441 29.30285525 -20.99245667 13.47876168 -10.9921875 0.33984375 C-7.55303841 -1.37973079 -3.62163364 -1.20010997 0 0 Z M-5.9921875 24.33984375 C-11.57526498 33.21445776 -11.57526498 33.21445776 -11.9921875 43.33984375 C-11.15885417 45.50651042 -11.15885417 45.50651042 -8.9921875 46.33984375 C-5.4082916 46.86249524 -2.23589257 47.00056207 1.0078125 45.27734375 C2.62037175 42.1530102 2.75968477 39.69704085 2.0078125 36.33984375 C0.22884961 32.21471241 -1.82283792 28.27178986 -3.9921875 24.33984375 C-4.6521875 24.33984375 -5.3121875 24.33984375 -5.9921875 24.33984375 Z " fill="#000000" transform="translate(68.9921875,296.66015625)"/>
<path d="M0 0 C2.85695398 1.07537032 3.54301277 2.13773348 5.0859375 4.78515625 C6.30653152 7.51105134 7.33433955 10.28491639 8.3359375 13.09765625 C8.61695313 13.83177734 8.89796875 14.56589844 9.1875 15.32226562 C10.92866394 20.17942344 11.36609589 23.63866092 10.0859375 28.78515625 C8.4609375 31.22265625 8.4609375 31.22265625 6.0859375 32.78515625 C2.16473526 33.35551294 -0.00886645 33.32911723 -3.4296875 31.2734375 C-6.69926516 27.99871899 -7.80597418 24.8093863 -9.2265625 20.47265625 C-9.49017578 19.73853516 -9.75378906 19.00441406 -10.02539062 18.24804688 C-11.59577612 13.65110025 -12.3657878 9.69919503 -11.9140625 4.78515625 C-8.55474079 -0.41637413 -5.71447594 -0.69236825 0 0 Z " fill="#000000" transform="translate(154.9140625,247.21484375)"/>
<path d="M0 0 C1.14984375 -0.00386719 2.2996875 -0.00773437 3.484375 -0.01171875 C4.68578125 -0.00011719 5.8871875 0.01148438 7.125 0.0234375 C8.32640625 0.01183594 9.5278125 0.00023437 10.765625 -0.01171875 C12.49039063 -0.00591797 12.49039063 -0.00591797 14.25 0 C15.83167969 0.00507568 15.83167969 0.00507568 17.4453125 0.01025391 C20.125 0.3984375 20.125 0.3984375 21.96728516 1.77490234 C23.57456373 4.02888853 23.52450596 5.65377045 23.5 8.3984375 C23.51160156 9.6978125 23.51160156 9.6978125 23.5234375 11.0234375 C23.03434796 13.93879475 22.47620888 14.64172989 20.125 16.3984375 C17.4453125 16.78662109 17.4453125 16.78662109 14.25 16.796875 C13.10015625 16.80074219 11.9503125 16.80460937 10.765625 16.80859375 C9.56421875 16.79699219 8.3628125 16.78539062 7.125 16.7734375 C5.92359375 16.78503906 4.7221875 16.79664063 3.484375 16.80859375 C1.75960937 16.80279297 1.75960937 16.80279297 0 16.796875 C-1.05445312 16.79349121 -2.10890625 16.79010742 -3.1953125 16.78662109 C-5.875 16.3984375 -5.875 16.3984375 -7.71728516 15.02197266 C-9.32456373 12.76798647 -9.27450596 11.14310455 -9.25 8.3984375 C-9.25773437 7.5321875 -9.26546875 6.6659375 -9.2734375 5.7734375 C-8.36230848 0.34239395 -4.95634198 0.01590513 0 0 Z " fill="#000000" transform="translate(80.875,487.6015625)"/>
<path d="M0 0 C0.86625 -0.00773437 1.7325 -0.01546875 2.625 -0.0234375 C5.54035725 0.46565204 6.24329239 1.02379112 8 3.375 C8.38818359 6.0546875 8.38818359 6.0546875 8.3984375 9.25 C8.40423828 10.97476562 8.40423828 10.97476562 8.41015625 12.734375 C8.39855469 13.93578125 8.38695312 15.1371875 8.375 16.375 C8.38660156 17.57640625 8.39820313 18.7778125 8.41015625 20.015625 C8.40628906 21.16546875 8.40242188 22.3153125 8.3984375 23.5 C8.39505371 24.55445313 8.39166992 25.60890625 8.38818359 26.6953125 C8 29.375 8 29.375 6.62353516 31.21728516 C4.36954897 32.82456373 2.74466705 32.77450596 0 32.75 C-1.299375 32.76160156 -1.299375 32.76160156 -2.625 32.7734375 C-5.54035725 32.28434796 -6.24329239 31.72620888 -8 29.375 C-8.38818359 26.6953125 -8.38818359 26.6953125 -8.3984375 23.5 C-8.40230469 22.35015625 -8.40617187 21.2003125 -8.41015625 20.015625 C-8.39855469 18.81421875 -8.38695312 17.6128125 -8.375 16.375 C-8.38660156 15.17359375 -8.39820313 13.9721875 -8.41015625 12.734375 C-8.40628906 11.58453125 -8.40242188 10.4346875 -8.3984375 9.25 C-8.39505371 8.19554687 -8.39166992 7.14109375 -8.38818359 6.0546875 C-8 3.375 -8 3.375 -6.62353516 1.53271484 C-4.36954897 -0.07456373 -2.74466705 -0.02450596 0 0 Z " fill="#000000" transform="translate(464,439.625)"/>
</svg>
